<svg xmlns="http://www.w3.org/2000/svg" fill-rule="evenodd" stroke-linejoin="round" stroke-miterlimit="2" clip-rule="evenodd" viewBox="0 0 64 64" id="menu"><rect width="64" height="64" fill="none"></rect><path fill="#3fc1c9" d="M667.462,578L690.462,578C692.414,578 694,575.76 694,573C694,570.24 692.414,568 690.462,568L651.538,568C649.586,568 648,570.24 648,573C648,575.76 649.586,578 651.538,578L660.385,578" transform="matrix(1.13043 0 0 .8 -726.522 -426.4)"></path><path fill="#364f6b" d="M667.462,580.5L690.462,580.5C693.391,580.5 695.769,577.139 695.769,573C695.769,568.861 693.391,565.5 690.462,565.5L651.538,565.5C648.609,565.5 646.231,568.861 646.231,573C646.231,577.139 648.609,580.5 651.538,580.5L660.385,580.5C661.361,580.5 662.154,579.38 662.154,578C662.154,576.62 661.361,575.5 660.385,575.5L651.538,575.5C650.562,575.5 649.769,574.38 649.769,573C649.769,571.62 650.562,570.5 651.538,570.5C651.538,570.5 690.462,570.5 690.462,570.5C691.438,570.5 692.231,571.62 692.231,573C692.231,574.38 691.438,575.5 690.462,575.5C690.462,575.5 667.462,575.5 667.462,575.5C666.485,575.5 665.692,576.62 665.692,578C665.692,579.38 666.485,580.5 667.462,580.5Z" transform="matrix(1.13043 0 0 .8 -726.522 -426.4)"></path><path fill="#364f6b" d="M695.769,573C695.769,568.861 693.391,565.5 690.462,565.5C690.462,565.5 651.538,565.5 651.538,565.5C648.609,565.5 646.231,568.861 646.231,573C646.231,577.139 648.609,580.5 651.538,580.5C651.538,580.5 690.462,580.5 690.462,580.5C693.391,580.5 695.769,577.139 695.769,573ZM692.231,573C692.231,574.38 691.438,575.5 690.462,575.5L651.538,575.5C650.562,575.5 649.769,574.38 649.769,573C649.769,571.62 650.562,570.5 651.538,570.5L690.462,570.5C691.438,570.5 692.231,571.62 692.231,573Z" transform="matrix(1.13043 0 0 .8 -726.522 -444.4)"></path><path fill="#364f6b" d="M695.769,573C695.769,568.861 693.391,565.5 690.462,565.5L651.538,565.5C648.609,565.5 646.231,568.861 646.231,573C646.231,577.139 648.609,580.5 651.538,580.5L690.462,580.5C693.391,580.5 695.769,577.139 695.769,573ZM692.231,573C692.231,574.38 691.438,575.5 690.462,575.5C690.462,575.5 651.538,575.5 651.538,575.5C650.562,575.5 649.769,574.38 649.769,573C649.769,571.62 650.562,570.5 651.538,570.5C651.538,570.5 690.462,570.5 690.462,570.5C691.438,570.5 692.231,571.62 692.231,573Z" transform="matrix(1.13043 0 0 .8 -726.522 -408.4)"></path></svg>