<svg xmlns="http://www.w3.org/2000/svg" viewBox="0 0 16 16" id="user"><path fill="#231f20" d="M3.893 2A2.896 2.896 0 0 0 1 4.893v5.712A2.899 2.899 0 0 0 3.893 13.5h4.351a3.254 3.254 0 0 0 2.998 1.992 3.254 3.254 0 0 0 3.25-3.25A3.253 3.253 0 0 0 12.5 9.248V4.893A2.897 2.897 0 0 0 9.605 2H3.893Zm0 .5h5.712A2.397 2.397 0 0 1 12 4.893v4.199a3.21 3.21 0 0 0-.758-.098c-.769 0-1.466.279-2.023.727a4.736 4.736 0 0 0-7.031 2.56 2.383 2.383 0 0 1-.688-1.676V4.893A2.395 2.395 0 0 1 3.893 2.5Zm2.841 1.525a2.245 2.245 0 0 0-2.242 2.243 2.244 2.244 0 0 0 2.242 2.24 2.242 2.242 0 0 0 2.24-2.24 2.244 2.244 0 0 0-2.24-2.243zm0 .5a1.742 1.742 0 1 1-1.742 1.742c0-.96.782-1.742 1.742-1.742zm-.033 4.967c.757 0 1.487.208 2.135.584a3.227 3.227 0 0 0-.846 2.166c0 .261.04.514.1.758H3.893c-.476 0-.918-.144-1.291-.385a4.242 4.242 0 0 1 4.1-3.123zm4.541 0a2.752 2.752 0 0 1 2.75 2.75 2.752 2.752 0 0 1-2.75 2.75 2.752 2.752 0 0 1-2.75-2.75 2.752 2.752 0 0 1 2.75-2.75zm-.25 1.27v2.06l-1.123-.787-.285.408 1.66 1.166 1.621-1.166-.293-.406-1.08.777v-2.052h-.5z"></path></svg>